<?xml version="1.0" encoding="UTF-8" standalone="no"?>
<svg xmlns="http://www.w3.org/2000/svg" viewBox="0 0 102.85526 27.870897">
  <path d="M1.323 18.456v6.6147H0V9.0193h5.049q1.0585.022 1.9735.3528.926.331 1.6095.949.6946.607 1.0914 1.478.397.871.397 1.974t-.397 1.974q-.3968.86-1.0914 1.466-.6835.596-1.6095.915-.926.32-1.9734.331zm0-1.1133h3.726q.794-.011 1.4774-.2646.6835-.253 1.1906-.705.507-.452.7938-1.102.2976-.65.2976-1.477 0-.827-.2866-1.499-.2866-.672-.7938-1.135-.507-.474-1.1906-.727-.6835-.264-1.4883-.286H1.323zm17.8394 3.2523H13.055l-1.4222 4.4757h-1.334l5.2256-16.0514h1.1907l5.182 16.0514h-1.323zm-5.7326-1.1798h5.3578l-2.668-8.4446zm14.841-1.0582H24.302v6.7137h-1.301V9.0193h4.531q1.0584.022 1.9955.3418.937.32 1.6316.926.706.596 1.103 1.467.408.871.408 1.996 0 .805-.242 1.466-.231.662-.65 1.202-.419.53-1.003.937-.573.408-1.267.695l3.66 6.879v.144H31.79zm-3.9688-1.1135h3.4947q.7496-.022 1.4-.2867.6505-.2645 1.1246-.7165.485-.463.7496-1.1025.275-.6394.275-1.4 0-.849-.298-1.5104-.298-.6615-.816-1.1134-.507-.463-1.213-.7056-.695-.2425-1.5-.2646H24.3zm20.4412.7717q-.011.915-.1763 1.852-.166.926-.508 1.786-.342.849-.871 1.5765-.518.7165-1.235 1.2126l2.756 2.5907-.915.838-3.043-2.8333q-.364.1212-.772.1874-.397.067-.849.067-.982 0-1.786-.297-.794-.308-1.423-.827-.618-.529-1.081-1.234-.452-.716-.75-1.521-.298-.805-.452-1.676-.144-.871-.155-1.719v-1.919q.011-.849.154-1.719.143-.871.441-1.686.297-.816.749-1.5213.463-.705 1.0803-1.234.6284-.529 1.422-.827.794-.3084 1.775-.3084.981 0 1.775.3083.8047.2976 1.422.8268.6285.518 1.0805 1.235.452.7058.75 1.5216.3083.804.452 1.686.143.871.154 1.72zm-1.3118-1.9403q-.011-.673-.1103-1.39-.088-.717-.308-1.389-.209-.673-.54-1.268-.33-.607-.816-1.059-.474-.452-1.113-.717-.628-.265-1.433-.265t-1.433.265q-.617.264-1.102.716-.474.452-.804 1.058-.331.606-.551 1.279-.209.672-.308 1.389-.099.705-.11 1.378v1.94q.011.672.11 1.389.099.706.309 1.389.221.673.552 1.279.3416.595.8157 1.058.474.452 1.1025.716.6397.2644 1.444.2644t1.433-.2648q.64-.265 1.114-.717.485-.452.805-1.058.3306-.6064.54-1.279.2095-.683.2977-1.389.0997-.7165.111-1.389zM50.5 17.772l4.2886-8.7533h1.4993l-5.149 10.01-.022 6.0414h-1.235l-.022-6.041-5.149-10.01h1.532zm16.7262 7.298h-1.312l-7.364-13.5487-.011 13.5486h-1.312V9.019h1.312l7.364 13.527.011-13.527h1.312zm11.8864-1.907q-.474.5622-1.0473.97-.5733.408-1.2237.6725-.6394.2537-1.345.364-.7055.1212-1.433.1212-.9592-.011-1.764-.2977-.7938-.2977-1.4332-.8048-.6394-.5184-1.1134-1.202-.474-.6943-.7938-1.488-.3086-.794-.474-1.6537-.1654-.871-.1764-1.7308v-2.249q.011-.8378.1543-1.6867.155-.849.452-1.6317.309-.7936.761-1.466.452-.6836 1.07-1.1907.618-.507 1.389-.7938.783-.2977 1.742-.2977 1.069 0 1.973.353.915.342 1.599.97.684.618 1.103 1.489.43.871.54 1.93H77.79q-.1543-.771-.474-1.433-.3087-.661-.7938-1.135-.4853-.474-1.1467-.738-.6505-.276-1.4883-.276-.7716 0-1.389.265-.6173.253-1.0914.694-.463.43-.8047 1.014-.331.573-.551 1.235-.209.651-.308 1.345-.099.684-.11 1.334v2.271q.011.673.122 1.378.121.706.353 1.378.232.662.584 1.257.353.596.838 1.047.496.441 1.124.706.629.253 1.422.264.496.011 1.026-.044.529-.066 1.025-.2203.507-.1652.937-.441.441-.2754.761-.6943l.011-4.145H74.03v-1.146h5.06z" style="line-height:0;-inkscape-font-specification:'Roboto Mono Light for Powerline'" font-size="22.5778" font-family="Roboto Mono Light for Powerline" letter-spacing="-1.9711" word-spacing="0"/>
  <path d="M88.6565 0h10.9463l-7.694 8.4398H80.9626z" opacity=".97" fill="#ffca20"/>
  <path d="M91.909 8.4398h10.9463l-7.694 8.4397H84.215z" opacity=".97" fill="#ffe07e"/>
  <path d="M85.42 24.7403a1.4683 1.4683 0 0 1-1.4684 1.4683 1.4683 1.4683 0 0 1-1.4683-1.4683 1.4683 1.4683 0 0 1 1.4683-1.4684A1.4683 1.4683 0 0 1 85.42 24.74z" fill="none" stroke="#000" stroke-width=".3337"/>
  <path d="M83.0473 24.5334h.437a.5006.5006 0 1 1 0 .417h-.437a.9177.9177 0 1 0 0-.417z"/>
</svg>
